<?xml version="1.0" encoding="UTF-8"?>
<svg width="18px" height="18px" viewBox="0 0 18 18" version="1.1" xmlns="http://www.w3.org/2000/svg" xmlns:xlink="http://www.w3.org/1999/xlink">
    <!-- Generator: sketchtool 51 (57462) - http://www.bohemiancoding.com/sketch -->
    <title>C8CF60CC-EE71-46E6-912A-820457B5A1F1</title>
    <desc>Created with sketchtool.</desc>
    <defs></defs>
    <g id="Page-1" stroke="none" stroke-width="1" fill="none" fill-rule="evenodd">
        <g id="2.6---ORG---Dashboard_UpcomingRides-DETAILS" transform="translate(-747.000000, -1129.000000)" fill="#CCCCCC">
            <g id="InviteForm" transform="translate(446.000000, 746.000000)">
                <g id="Group-Copy" transform="translate(301.000000, 383.000000)">
                    <path d="M9,18 C4.02943725,18 0,13.9705627 0,9 C0,4.02943725 4.02943725,0 9,0 C13.9705627,0 18,4.02943725 18,9 C18,13.9705627 13.9705627,18 9,18 Z M12.7347059,4 L8.99117647,7.74352941 L5.24764706,4 L4,5.24764706 L7.74352941,8.99117647 L4,12.7347059 L5.24764706,13.9823529 L8.99117647,10.2388235 L12.7347059,13.9823529 L13.9823529,12.7347059 L10.2388235,8.99117647 L13.9823529,5.24764706 L12.7347059,4 Z" id="Combined-Shape"></path>
                </g>
            </g>
        </g>
    </g>
</svg>