<?xml version="1.0" encoding="UTF-8" standalone="no"?>
<svg width="48px" height="65px" viewBox="0 0 48 65" version="1.1" xmlns="http://www.w3.org/2000/svg" xmlns:xlink="http://www.w3.org/1999/xlink">
    <!-- Generator: Sketch 46.2 (44496) - http://www.bohemiancoding.com/sketch -->
    <title>Group 3</title>
    <desc>Created with Sketch.</desc>
    <defs>
        <path d="M35.85312,18.2998228 C35.85312,8.19179196 27.78984,0 17.92656,0 C8.06328,0 0,8.19179196 0,18.2998228 C0,21.3262553 0.72,24.1277862 1.943424,26.6384501 L9.646704,45.1603707 L17.926704,64.9329746 L26.133264,45.0858462 L33.836544,26.639188 C35.13312,24.2036388 35.85312,21.3242631 35.85312,18.3005606 L35.85312,18.2998228 Z" id="path-1"></path>
    </defs>
    <g id="Symbols" stroke="none" stroke-width="1" fill="none" fill-rule="evenodd">
        <g id="Map-PIN-annex">
            <g id="Group">
                <g>
                    <g id="Group-3">
                        <path d="M41.8394238,34.1275424 C41.8394238,27.4132268 36.4833453,21.9717835 29.9316068,21.9717835 C23.3798683,21.9717835 18.0237897,27.4132268 18.0237897,34.1275424 C18.0237897,36.137867 18.5020537,37.9987994 19.3147199,39.6665219 L24.4316665,51.9698105 L29.9317025,65.1038725 L35.3829555,51.9203072 L40.499902,39.6670121 C41.3611599,38.049185 41.8394238,36.1365436 41.8394238,34.1280325 L41.8394238,34.1275424 Z" id="shadow" fill="#65656A" fill-rule="nonzero" opacity="0.38" transform="translate(29.931607, 43.537828) rotate(34.000000) translate(-29.931607, -43.537828) "></path>
                        <g id="Group-2">
                            <mask id="mask-2" fill="white">
                                <use xlink:href="#path-1"></use>
                            </mask>
                            <use id="Shape-Copy" fill="#FEE000" fill-rule="nonzero" xlink:href="#path-1"></use>
                        </g>
                        <path d="M5.912,20.734 C5.876,23.902 8.54,25.306 11.384,25.306 C14.876,25.306 16.73,23.542 16.73,21.184 C16.73,18.268 13.85,17.674 12.914,17.44 C9.692,16.612 9.08,16.486 9.08,15.496 C9.08,14.416 10.124,14.038 11.024,14.038 C12.374,14.038 13.472,14.434 13.562,15.982 L16.298,15.982 C16.298,13.012 13.832,11.842 11.15,11.842 C8.828,11.842 6.344,13.102 6.344,15.73 C6.344,18.142 8.27,18.88 10.178,19.384 C12.068,19.888 13.994,20.122 13.994,21.508 C13.994,22.822 12.482,23.11 11.492,23.11 C9.98,23.11 8.648,22.444 8.648,20.734 L5.912,20.734 Z M30.208,16.468 C29.866,13.498 27.49,11.842 24.664,11.842 C20.686,11.842 18.346,14.812 18.346,18.628 C18.346,22.336 20.686,25.306 24.664,25.306 C27.814,25.306 30.028,23.254 30.316,20.05 L27.58,20.05 C27.364,21.742 26.392,22.93 24.664,22.93 C22.126,22.93 21.172,20.77 21.172,18.628 C21.172,16.378 22.126,14.218 24.664,14.218 C26.068,14.218 27.292,15.19 27.472,16.468 L30.208,16.468 Z" id="SC" fill="#333333"></path>
                    </g>
                </g>
            </g>
        </g>
    </g>
</svg>