<?xml version="1.0" standalone="no"?>
<!DOCTYPE svg PUBLIC "-//W3C//DTD SVG 20010904//EN"
 "http://www.w3.org/TR/2001/REC-SVG-20010904/DTD/svg10.dtd">
<svg version="1.0" xmlns="http://www.w3.org/2000/svg"
 width="48.000000pt" height="48.000000pt" viewBox="0 0 48.000000 48.000000"
 preserveAspectRatio="xMidYMid meet">

<g transform="translate(0.000000,48.000000) scale(0.100000,-0.100000)"
fill="#000000" stroke="none">
<path d="M220 368 c-14 -18 -25 -42 -25 -53 0 -15 -8 -21 -32 -23 l-33 -3 0
-105 0 -104 110 0 110 0 0 44 c0 23 -3 71 -6 105 l-7 61 -33 0 c-41 0 -65 32
-37 49 16 10 17 12 2 23 -9 7 -18 19 -20 26 -3 8 -14 1 -29 -20z m19 -194 c2
-2 -19 -4 -47 -4 -29 0 -52 5 -52 10 0 10 88 4 99 -6z m26 7 c3 -5 2 -12 -3
-15 -5 -3 -9 1 -9 9 0 17 3 19 12 6z"/>
</g>
</svg>
